<svg version="1.1" id="Layer_1" xmlns="http://www.w3.org/2000/svg"
	 viewBox="0 0 128 128" >
<path fill="#26AE49" opacity="1.000000" stroke="none"
	  d="M 46.756 42.694 C 37.849 42.695 28.993 42.697 20.137 42.693 C 17.057 42.692 14.683 39.781 15.798 36.513 C 16.406 34.732 18.005 33.537 19.936 33.535 C 45.835 33.524 71.732 33.521 97.631 33.537 C 99.51 33.538 100.958 34.501 101.671 36.194 C 102.897 39.104 101.31 42.008 98.191 42.677 C 97.992 42.72 97.78 42.693 97.574 42.693 C 80.651 42.694 63.73 42.694 46.756 42.694 Z"/>
<path fill="#9FA1A0" opacity="1.000000" stroke="none"
	  d="M 81.872 56.893 C 64.628 56.893 47.436 56.892 30.244 56.895 C 28.252 56.895 26.684 56.169 25.698 54.368 C 24.139 51.519 26.157 48.119 29.013 47.734 C 29.384 47.684 29.761 47.651 30.136 47.651 C 52.596 47.648 75.056 47.648 97.516 47.648 C 99.601 47.648 101.454 49.096 101.954 51.11 C 102.471 53.194 101.53 55.301 99.683 56.313 C 98.851 56.768 97.963 56.884 97.057 56.887 C 92.012 56.901 86.968 56.893 81.872 56.893 Z"/>
<path fill="#26AE49" opacity="1.000000" stroke="none"
	  d="M 39.859 71.013 C 37.838 71.086 36.339 70.275 35.404 68.544 C 34.263 66.43 34.975 63.734 37.142 62.457 C 37.9 62.011 38.717 61.835 39.586 61.835 C 46.724 61.835 53.862 61.831 61.001 61.83 C 72.977 61.83 84.955 61.826 96.932 61.84 C 97.586 61.841 98.265 61.902 98.891 62.081 C 100.341 62.493 101.704 63.857 101.975 65.544 C 102.275 67.411 101.707 68.896 100.268 70.064 C 99.519 70.671 98.626 70.948 97.668 71.007 C 97.463 71.02 97.256 71.013 97.05 71.013 C 78.004 71.013 58.957 71.013 39.859 71.013 Z"/>
<path fill="#9FA1A0" opacity="1.000000" stroke="none"
	  d="M 61.276 75.956 C 73.337 75.956 85.347 75.955 97.357 75.957 C 99.646 75.957 101.45 77.297 101.965 79.524 C 102.719 82.786 100.123 85.118 97.773 85.141 C 96.554 85.153 95.336 85.142 94.118 85.142 C 79.123 85.142 64.128 85.129 49.133 85.157 C 46.914 85.162 44.903 83.426 44.572 81.229 C 44.181 78.633 46.203 75.964 49.18 75.959 C 53.195 75.95 57.21 75.956 61.276 75.956 Z"/>
<path fill="#26AE49" opacity="1.000000" stroke="none"
	  d="M 74.252 90.15 C 81.956 90.15 89.609 90.159 97.261 90.144 C 99.232 90.141 100.725 90.952 101.593 92.702 C 102.232 93.99 102.266 95.34 101.594 96.697 C 100.669 98.563 99.149 99.334 97.143 99.334 C 84.497 99.332 71.851 99.327 59.205 99.339 C 57.484 99.341 56.079 98.77 55.049 97.358 C 53.048 94.615 54.779 90.925 57.751 90.281 C 58.244 90.174 58.764 90.156 59.272 90.156 C 64.248 90.147 69.224 90.15 74.252 90.15 Z"/>
</svg>